<mxfile host="app.diagrams.net" modified="2024-05-12T22:58:08.511Z" agent="Mozilla/5.0 (Windows NT 10.0; Win64; x64) AppleWebKit/537.36 (KHTML, like Gecko) Chrome/124.0.0.0 Safari/537.36" etag="EIoAlF8PlIyLYdt6vZ7q" version="24.4.0" type="device">
  <diagram id="R2lEEEUBdFMjLlhIrx00" name="Page-1">
    <mxGraphModel dx="2524" dy="1872" grid="1" gridSize="10" guides="1" tooltips="1" connect="1" arrows="1" fold="1" page="1" pageScale="1" pageWidth="850" pageHeight="1100" math="0" shadow="0" extFonts="Permanent Marker^https://fonts.googleapis.com/css?family=Permanent+Marker">
      <root>
        <mxCell id="0" />
        <mxCell id="1" parent="0" />
        <mxCell id="6sf0kL8a7eAcz61URbQK-1" value="Libro" style="rounded=1;whiteSpace=wrap;html=1;arcSize=11;" parent="1" vertex="1">
          <mxGeometry x="-170" y="195" width="120" height="60" as="geometry" />
        </mxCell>
        <mxCell id="6sf0kL8a7eAcz61URbQK-2" value="id" style="rounded=1;whiteSpace=wrap;html=1;arcSize=50;" parent="1" vertex="1">
          <mxGeometry x="-305" y="320" width="90" height="40" as="geometry" />
        </mxCell>
        <mxCell id="6sf0kL8a7eAcz61URbQK-3" value="titulo" style="rounded=1;whiteSpace=wrap;html=1;arcSize=50;" parent="1" vertex="1">
          <mxGeometry x="-305" y="270" width="90" height="40" as="geometry" />
        </mxCell>
        <mxCell id="6sf0kL8a7eAcz61URbQK-4" value="aÃ±o_publicacion" style="rounded=1;whiteSpace=wrap;html=1;arcSize=50;" parent="1" vertex="1">
          <mxGeometry x="-310" y="220" width="100" height="40" as="geometry" />
        </mxCell>
        <mxCell id="6sf0kL8a7eAcz61URbQK-5" value="disponibilidad" style="rounded=1;whiteSpace=wrap;html=1;arcSize=50;" parent="1" vertex="1">
          <mxGeometry x="-305" y="170" width="90" height="40" as="geometry" />
        </mxCell>
        <mxCell id="6sf0kL8a7eAcz61URbQK-6" value="sinopsis" style="rounded=1;whiteSpace=wrap;html=1;arcSize=50;" parent="1" vertex="1">
          <mxGeometry x="-305" y="120" width="90" height="40" as="geometry" />
        </mxCell>
        <mxCell id="6sf0kL8a7eAcz61URbQK-9" value="" style="endArrow=none;html=1;rounded=0;" parent="1" source="6sf0kL8a7eAcz61URbQK-1" target="6sf0kL8a7eAcz61URbQK-6" edge="1">
          <mxGeometry width="50" height="50" relative="1" as="geometry">
            <mxPoint x="170" y="320" as="sourcePoint" />
            <mxPoint x="220" y="270" as="targetPoint" />
          </mxGeometry>
        </mxCell>
        <mxCell id="6sf0kL8a7eAcz61URbQK-10" value="" style="endArrow=none;html=1;rounded=0;" parent="1" source="6sf0kL8a7eAcz61URbQK-1" target="6sf0kL8a7eAcz61URbQK-5" edge="1">
          <mxGeometry width="50" height="50" relative="1" as="geometry">
            <mxPoint x="-63" y="190" as="sourcePoint" />
            <mxPoint x="-29" y="140" as="targetPoint" />
          </mxGeometry>
        </mxCell>
        <mxCell id="6sf0kL8a7eAcz61URbQK-11" value="" style="endArrow=none;html=1;rounded=0;" parent="1" source="6sf0kL8a7eAcz61URbQK-1" target="6sf0kL8a7eAcz61URbQK-4" edge="1">
          <mxGeometry width="50" height="50" relative="1" as="geometry">
            <mxPoint x="-53" y="200" as="sourcePoint" />
            <mxPoint x="-19" y="150" as="targetPoint" />
          </mxGeometry>
        </mxCell>
        <mxCell id="6sf0kL8a7eAcz61URbQK-12" value="" style="endArrow=none;html=1;rounded=0;" parent="1" source="6sf0kL8a7eAcz61URbQK-3" target="6sf0kL8a7eAcz61URbQK-1" edge="1">
          <mxGeometry width="50" height="50" relative="1" as="geometry">
            <mxPoint x="-43" y="210" as="sourcePoint" />
            <mxPoint x="-9" y="160" as="targetPoint" />
          </mxGeometry>
        </mxCell>
        <mxCell id="6sf0kL8a7eAcz61URbQK-13" value="" style="endArrow=none;html=1;rounded=0;" parent="1" source="6sf0kL8a7eAcz61URbQK-2" target="6sf0kL8a7eAcz61URbQK-1" edge="1">
          <mxGeometry width="50" height="50" relative="1" as="geometry">
            <mxPoint x="-33" y="220" as="sourcePoint" />
            <mxPoint x="1" y="170" as="targetPoint" />
          </mxGeometry>
        </mxCell>
        <mxCell id="6sf0kL8a7eAcz61URbQK-14" value="Autor" style="rounded=1;whiteSpace=wrap;html=1;arcSize=11;" parent="1" vertex="1">
          <mxGeometry x="70" y="-110" width="120" height="60" as="geometry" />
        </mxCell>
        <mxCell id="6sf0kL8a7eAcz61URbQK-15" value="id" style="rounded=1;whiteSpace=wrap;html=1;arcSize=50;" parent="1" vertex="1">
          <mxGeometry x="-20" y="-160" width="90" height="40" as="geometry" />
        </mxCell>
        <mxCell id="6sf0kL8a7eAcz61URbQK-16" value="" style="endArrow=none;html=1;rounded=0;" parent="1" source="6sf0kL8a7eAcz61URbQK-14" target="6sf0kL8a7eAcz61URbQK-15" edge="1">
          <mxGeometry width="50" height="50" relative="1" as="geometry">
            <mxPoint x="-12" y="-105" as="sourcePoint" />
            <mxPoint x="270" y="-15" as="targetPoint" />
          </mxGeometry>
        </mxCell>
        <mxCell id="6sf0kL8a7eAcz61URbQK-17" value="nombre" style="rounded=1;whiteSpace=wrap;html=1;arcSize=50;" parent="1" vertex="1">
          <mxGeometry x="70" y="-200" width="90" height="40" as="geometry" />
        </mxCell>
        <mxCell id="6sf0kL8a7eAcz61URbQK-18" value="" style="endArrow=none;html=1;rounded=0;" parent="1" source="6sf0kL8a7eAcz61URbQK-14" target="6sf0kL8a7eAcz61URbQK-17" edge="1">
          <mxGeometry width="50" height="50" relative="1" as="geometry">
            <mxPoint x="148" y="-125" as="sourcePoint" />
            <mxPoint x="430" y="-35" as="targetPoint" />
          </mxGeometry>
        </mxCell>
        <mxCell id="6sf0kL8a7eAcz61URbQK-19" value="pais_origen" style="rounded=1;whiteSpace=wrap;html=1;arcSize=50;" parent="1" vertex="1">
          <mxGeometry x="180" y="-200" width="90" height="40" as="geometry" />
        </mxCell>
        <mxCell id="6sf0kL8a7eAcz61URbQK-20" value="" style="endArrow=none;html=1;rounded=0;" parent="1" source="6sf0kL8a7eAcz61URbQK-14" target="6sf0kL8a7eAcz61URbQK-19" edge="1">
          <mxGeometry width="50" height="50" relative="1" as="geometry">
            <mxPoint x="278" y="-115" as="sourcePoint" />
            <mxPoint x="540" y="-35" as="targetPoint" />
          </mxGeometry>
        </mxCell>
        <mxCell id="6sf0kL8a7eAcz61URbQK-21" value="Publica" style="rhombus;whiteSpace=wrap;html=1;" parent="1" vertex="1">
          <mxGeometry x="-170" y="-120" width="120" height="80" as="geometry" />
        </mxCell>
        <mxCell id="6sf0kL8a7eAcz61URbQK-22" value="" style="endArrow=none;html=1;rounded=0;" parent="1" source="6sf0kL8a7eAcz61URbQK-1" target="6sf0kL8a7eAcz61URbQK-21" edge="1">
          <mxGeometry width="50" height="50" relative="1" as="geometry">
            <mxPoint x="400" y="220" as="sourcePoint" />
            <mxPoint x="450" y="170" as="targetPoint" />
          </mxGeometry>
        </mxCell>
        <mxCell id="6sf0kL8a7eAcz61URbQK-23" value="" style="endArrow=none;html=1;rounded=0;" parent="1" source="6sf0kL8a7eAcz61URbQK-21" target="6sf0kL8a7eAcz61URbQK-14" edge="1">
          <mxGeometry width="50" height="50" relative="1" as="geometry">
            <mxPoint x="178" y="85" as="sourcePoint" />
            <mxPoint x="230" y="55" as="targetPoint" />
          </mxGeometry>
        </mxCell>
        <mxCell id="6sf0kL8a7eAcz61URbQK-24" value="1" style="text;html=1;align=center;verticalAlign=middle;whiteSpace=wrap;rounded=0;" parent="1" vertex="1">
          <mxGeometry y="-85" width="60" height="30" as="geometry" />
        </mxCell>
        <mxCell id="6sf0kL8a7eAcz61URbQK-25" value="*" style="text;html=1;align=center;verticalAlign=middle;whiteSpace=wrap;rounded=0;" parent="1" vertex="1">
          <mxGeometry x="-130" y="170" width="60" height="30" as="geometry" />
        </mxCell>
        <mxCell id="6sf0kL8a7eAcz61URbQK-26" value="Categoria" style="rounded=1;whiteSpace=wrap;html=1;arcSize=11;" parent="1" vertex="1">
          <mxGeometry x="113" y="45" width="112" height="60" as="geometry" />
        </mxCell>
        <mxCell id="6sf0kL8a7eAcz61URbQK-27" value="id" style="rounded=1;whiteSpace=wrap;html=1;arcSize=50;" parent="1" vertex="1">
          <mxGeometry x="70" y="-15" width="90" height="40" as="geometry" />
        </mxCell>
        <mxCell id="6sf0kL8a7eAcz61URbQK-28" value="" style="endArrow=none;html=1;rounded=0;" parent="1" source="6sf0kL8a7eAcz61URbQK-26" target="6sf0kL8a7eAcz61URbQK-27" edge="1">
          <mxGeometry width="50" height="50" relative="1" as="geometry">
            <mxPoint x="-12" y="45" as="sourcePoint" />
            <mxPoint x="270" y="135" as="targetPoint" />
          </mxGeometry>
        </mxCell>
        <mxCell id="6sf0kL8a7eAcz61URbQK-29" value="nombre" style="rounded=1;whiteSpace=wrap;html=1;arcSize=50;" parent="1" vertex="1">
          <mxGeometry x="180" y="-20" width="90" height="40" as="geometry" />
        </mxCell>
        <mxCell id="6sf0kL8a7eAcz61URbQK-30" value="" style="endArrow=none;html=1;rounded=0;" parent="1" source="6sf0kL8a7eAcz61URbQK-26" target="6sf0kL8a7eAcz61URbQK-29" edge="1">
          <mxGeometry width="50" height="50" relative="1" as="geometry">
            <mxPoint x="148" y="25" as="sourcePoint" />
            <mxPoint x="430" y="115" as="targetPoint" />
          </mxGeometry>
        </mxCell>
        <mxCell id="6sf0kL8a7eAcz61URbQK-34" value="Contiene" style="rhombus;whiteSpace=wrap;html=1;" parent="1" vertex="1">
          <mxGeometry x="110" y="185" width="120" height="80" as="geometry" />
        </mxCell>
        <mxCell id="6sf0kL8a7eAcz61URbQK-35" value="" style="endArrow=none;html=1;rounded=0;" parent="1" source="6sf0kL8a7eAcz61URbQK-34" target="6sf0kL8a7eAcz61URbQK-1" edge="1">
          <mxGeometry width="50" height="50" relative="1" as="geometry">
            <mxPoint x="400" y="220" as="sourcePoint" />
            <mxPoint x="450" y="170" as="targetPoint" />
          </mxGeometry>
        </mxCell>
        <mxCell id="6sf0kL8a7eAcz61URbQK-36" value="" style="endArrow=none;html=1;rounded=0;" parent="1" source="6sf0kL8a7eAcz61URbQK-34" target="6sf0kL8a7eAcz61URbQK-26" edge="1">
          <mxGeometry width="50" height="50" relative="1" as="geometry">
            <mxPoint x="170" y="215" as="sourcePoint" />
            <mxPoint x="220" y="165" as="targetPoint" />
          </mxGeometry>
        </mxCell>
        <mxCell id="6sf0kL8a7eAcz61URbQK-37" value="*" style="text;html=1;align=center;verticalAlign=middle;whiteSpace=wrap;rounded=0;" parent="1" vertex="1">
          <mxGeometry x="-60" y="200" width="60" height="30" as="geometry" />
        </mxCell>
        <mxCell id="6sf0kL8a7eAcz61URbQK-38" value="*" style="text;html=1;align=center;verticalAlign=middle;whiteSpace=wrap;rounded=0;" parent="1" vertex="1">
          <mxGeometry x="130" y="115" width="60" height="30" as="geometry" />
        </mxCell>
        <mxCell id="6sf0kL8a7eAcz61URbQK-39" value="Factura" style="rounded=1;whiteSpace=wrap;html=1;" parent="1" vertex="1">
          <mxGeometry x="110" y="420" width="120" height="60" as="geometry" />
        </mxCell>
        <mxCell id="6sf0kL8a7eAcz61URbQK-40" value="precio" style="rounded=1;whiteSpace=wrap;html=1;arcSize=50;" parent="1" vertex="1">
          <mxGeometry x="-300" y="70" width="90" height="40" as="geometry" />
        </mxCell>
        <mxCell id="6sf0kL8a7eAcz61URbQK-41" value="" style="endArrow=none;html=1;rounded=0;" parent="1" source="6sf0kL8a7eAcz61URbQK-1" target="6sf0kL8a7eAcz61URbQK-40" edge="1">
          <mxGeometry width="50" height="50" relative="1" as="geometry">
            <mxPoint x="-161" y="145" as="sourcePoint" />
            <mxPoint x="220" y="220" as="targetPoint" />
          </mxGeometry>
        </mxCell>
        <mxCell id="6sf0kL8a7eAcz61URbQK-42" value="id" style="rounded=1;whiteSpace=wrap;html=1;arcSize=50;" parent="1" vertex="1">
          <mxGeometry x="60" y="520" width="90" height="40" as="geometry" />
        </mxCell>
        <mxCell id="6sf0kL8a7eAcz61URbQK-43" value="total" style="rounded=1;whiteSpace=wrap;html=1;arcSize=50;" parent="1" vertex="1">
          <mxGeometry x="180" y="520" width="90" height="40" as="geometry" />
        </mxCell>
        <mxCell id="6sf0kL8a7eAcz61URbQK-45" value="Posee" style="rhombus;whiteSpace=wrap;html=1;" parent="1" vertex="1">
          <mxGeometry x="-160" y="410" width="100" height="80" as="geometry" />
        </mxCell>
        <mxCell id="6sf0kL8a7eAcz61URbQK-46" value="" style="endArrow=none;html=1;rounded=0;" parent="1" source="6sf0kL8a7eAcz61URbQK-45" target="6sf0kL8a7eAcz61URbQK-39" edge="1">
          <mxGeometry width="50" height="50" relative="1" as="geometry">
            <mxPoint x="400" y="320" as="sourcePoint" />
            <mxPoint x="450" y="270" as="targetPoint" />
          </mxGeometry>
        </mxCell>
        <mxCell id="6sf0kL8a7eAcz61URbQK-47" value="" style="endArrow=none;html=1;rounded=0;" parent="1" source="6sf0kL8a7eAcz61URbQK-45" target="6sf0kL8a7eAcz61URbQK-1" edge="1">
          <mxGeometry width="50" height="50" relative="1" as="geometry">
            <mxPoint x="400" y="320" as="sourcePoint" />
            <mxPoint x="450" y="270" as="targetPoint" />
          </mxGeometry>
        </mxCell>
        <mxCell id="6sf0kL8a7eAcz61URbQK-48" value="*" style="text;html=1;align=center;verticalAlign=middle;whiteSpace=wrap;rounded=0;" parent="1" vertex="1">
          <mxGeometry x="-130" y="255" width="60" height="30" as="geometry" />
        </mxCell>
        <mxCell id="6sf0kL8a7eAcz61URbQK-49" value="*" style="text;html=1;align=center;verticalAlign=middle;whiteSpace=wrap;rounded=0;" parent="1" vertex="1">
          <mxGeometry x="70" y="430" width="60" height="30" as="geometry" />
        </mxCell>
        <mxCell id="6sf0kL8a7eAcz61URbQK-50" value="" style="endArrow=none;html=1;rounded=0;" parent="1" source="6sf0kL8a7eAcz61URbQK-42" target="6sf0kL8a7eAcz61URbQK-39" edge="1">
          <mxGeometry width="50" height="50" relative="1" as="geometry">
            <mxPoint x="370" y="320" as="sourcePoint" />
            <mxPoint x="420" y="270" as="targetPoint" />
          </mxGeometry>
        </mxCell>
        <mxCell id="6sf0kL8a7eAcz61URbQK-51" value="" style="endArrow=none;html=1;rounded=0;" parent="1" source="6sf0kL8a7eAcz61URbQK-43" target="6sf0kL8a7eAcz61URbQK-39" edge="1">
          <mxGeometry width="50" height="50" relative="1" as="geometry">
            <mxPoint x="122" y="530" as="sourcePoint" />
            <mxPoint x="155" y="490" as="targetPoint" />
          </mxGeometry>
        </mxCell>
        <mxCell id="6sf0kL8a7eAcz61URbQK-52" value="Estado" style="rounded=1;whiteSpace=wrap;html=1;" parent="1" vertex="1">
          <mxGeometry x="465" y="295" width="120" height="60" as="geometry" />
        </mxCell>
        <mxCell id="6sf0kL8a7eAcz61URbQK-53" value="id" style="rounded=1;whiteSpace=wrap;html=1;arcSize=50;" parent="1" vertex="1">
          <mxGeometry x="435" y="230" width="90" height="40" as="geometry" />
        </mxCell>
        <mxCell id="6sf0kL8a7eAcz61URbQK-54" value="nombre" style="rounded=1;whiteSpace=wrap;html=1;arcSize=50;" parent="1" vertex="1">
          <mxGeometry x="555" y="230" width="90" height="40" as="geometry" />
        </mxCell>
        <mxCell id="6sf0kL8a7eAcz61URbQK-55" value="" style="endArrow=none;html=1;rounded=0;" parent="1" source="6sf0kL8a7eAcz61URbQK-53" target="6sf0kL8a7eAcz61URbQK-52" edge="1">
          <mxGeometry width="50" height="50" relative="1" as="geometry">
            <mxPoint x="865" y="190" as="sourcePoint" />
            <mxPoint x="915" y="140" as="targetPoint" />
          </mxGeometry>
        </mxCell>
        <mxCell id="6sf0kL8a7eAcz61URbQK-56" value="" style="endArrow=none;html=1;rounded=0;" parent="1" source="6sf0kL8a7eAcz61URbQK-54" target="6sf0kL8a7eAcz61URbQK-52" edge="1">
          <mxGeometry width="50" height="50" relative="1" as="geometry">
            <mxPoint x="617" y="400" as="sourcePoint" />
            <mxPoint x="650" y="360" as="targetPoint" />
          </mxGeometry>
        </mxCell>
        <mxCell id="6sf0kL8a7eAcz61URbQK-57" value="Presenta" style="rhombus;whiteSpace=wrap;html=1;" parent="1" vertex="1">
          <mxGeometry x="109" y="285" width="120" height="80" as="geometry" />
        </mxCell>
        <mxCell id="6sf0kL8a7eAcz61URbQK-58" value="" style="endArrow=none;html=1;rounded=0;" parent="1" source="6sf0kL8a7eAcz61URbQK-39" target="6sf0kL8a7eAcz61URbQK-57" edge="1">
          <mxGeometry width="50" height="50" relative="1" as="geometry">
            <mxPoint x="370" y="320" as="sourcePoint" />
            <mxPoint x="420" y="270" as="targetPoint" />
          </mxGeometry>
        </mxCell>
        <mxCell id="6sf0kL8a7eAcz61URbQK-62" value="" style="endArrow=none;html=1;rounded=0;" parent="1" source="6sf0kL8a7eAcz61URbQK-57" target="6sf0kL8a7eAcz61URbQK-52" edge="1">
          <mxGeometry width="50" height="50" relative="1" as="geometry">
            <mxPoint x="400" y="320" as="sourcePoint" />
            <mxPoint x="450" y="270" as="targetPoint" />
          </mxGeometry>
        </mxCell>
        <mxCell id="6sf0kL8a7eAcz61URbQK-63" value="1" style="text;html=1;align=center;verticalAlign=middle;whiteSpace=wrap;rounded=0;" parent="1" vertex="1">
          <mxGeometry x="150" y="390" width="60" height="30" as="geometry" />
        </mxCell>
        <mxCell id="6sf0kL8a7eAcz61URbQK-64" value="*" style="text;html=1;align=center;verticalAlign=middle;whiteSpace=wrap;rounded=0;" parent="1" vertex="1">
          <mxGeometry x="415" y="325" width="60" height="30" as="geometry" />
        </mxCell>
        <mxCell id="6sf0kL8a7eAcz61URbQK-65" value="Cliente" style="rounded=1;whiteSpace=wrap;html=1;" parent="1" vertex="1">
          <mxGeometry x="470" y="560" width="120" height="60" as="geometry" />
        </mxCell>
        <mxCell id="6sf0kL8a7eAcz61URbQK-66" value="Realiza" style="rhombus;whiteSpace=wrap;html=1;" parent="1" vertex="1">
          <mxGeometry x="470" y="410" width="120" height="80" as="geometry" />
        </mxCell>
        <mxCell id="6sf0kL8a7eAcz61URbQK-67" value="id" style="rounded=1;whiteSpace=wrap;html=1;arcSize=50;" parent="1" vertex="1">
          <mxGeometry x="335" y="580" width="90" height="40" as="geometry" />
        </mxCell>
        <mxCell id="6sf0kL8a7eAcz61URbQK-68" value="nombre" style="rounded=1;whiteSpace=wrap;html=1;arcSize=50;" parent="1" vertex="1">
          <mxGeometry x="370" y="650" width="90" height="40" as="geometry" />
        </mxCell>
        <mxCell id="6sf0kL8a7eAcz61URbQK-69" value="telefono" style="rounded=1;whiteSpace=wrap;html=1;arcSize=50;" parent="1" vertex="1">
          <mxGeometry x="485" y="660" width="90" height="40" as="geometry" />
        </mxCell>
        <mxCell id="6sf0kL8a7eAcz61URbQK-70" value="direccion" style="rounded=1;whiteSpace=wrap;html=1;arcSize=50;" parent="1" vertex="1">
          <mxGeometry x="600" y="650" width="90" height="40" as="geometry" />
        </mxCell>
        <mxCell id="6sf0kL8a7eAcz61URbQK-72" value="correo" style="rounded=1;whiteSpace=wrap;html=1;arcSize=50;" parent="1" vertex="1">
          <mxGeometry x="640" y="580" width="90" height="40" as="geometry" />
        </mxCell>
        <mxCell id="6sf0kL8a7eAcz61URbQK-73" value="" style="endArrow=none;html=1;rounded=0;" parent="1" source="6sf0kL8a7eAcz61URbQK-67" target="6sf0kL8a7eAcz61URbQK-65" edge="1">
          <mxGeometry width="50" height="50" relative="1" as="geometry">
            <mxPoint x="330" y="320" as="sourcePoint" />
            <mxPoint x="380" y="270" as="targetPoint" />
          </mxGeometry>
        </mxCell>
        <mxCell id="6sf0kL8a7eAcz61URbQK-74" value="" style="endArrow=none;html=1;rounded=0;" parent="1" source="6sf0kL8a7eAcz61URbQK-68" target="6sf0kL8a7eAcz61URbQK-65" edge="1">
          <mxGeometry width="50" height="50" relative="1" as="geometry">
            <mxPoint x="420" y="593" as="sourcePoint" />
            <mxPoint x="480" y="596" as="targetPoint" />
          </mxGeometry>
        </mxCell>
        <mxCell id="6sf0kL8a7eAcz61URbQK-75" value="" style="endArrow=none;html=1;rounded=0;" parent="1" source="6sf0kL8a7eAcz61URbQK-69" target="6sf0kL8a7eAcz61URbQK-65" edge="1">
          <mxGeometry width="50" height="50" relative="1" as="geometry">
            <mxPoint x="430" y="635" as="sourcePoint" />
            <mxPoint x="480" y="619" as="targetPoint" />
          </mxGeometry>
        </mxCell>
        <mxCell id="6sf0kL8a7eAcz61URbQK-76" value="" style="endArrow=none;html=1;rounded=0;" parent="1" source="6sf0kL8a7eAcz61URbQK-70" target="6sf0kL8a7eAcz61URbQK-65" edge="1">
          <mxGeometry width="50" height="50" relative="1" as="geometry">
            <mxPoint x="440" y="645" as="sourcePoint" />
            <mxPoint x="490" y="629" as="targetPoint" />
          </mxGeometry>
        </mxCell>
        <mxCell id="6sf0kL8a7eAcz61URbQK-78" value="" style="endArrow=none;html=1;rounded=0;" parent="1" source="6sf0kL8a7eAcz61URbQK-65" target="6sf0kL8a7eAcz61URbQK-72" edge="1">
          <mxGeometry width="50" height="50" relative="1" as="geometry">
            <mxPoint x="460" y="665" as="sourcePoint" />
            <mxPoint x="510" y="649" as="targetPoint" />
          </mxGeometry>
        </mxCell>
        <mxCell id="6sf0kL8a7eAcz61URbQK-79" value="" style="endArrow=none;html=1;rounded=0;" parent="1" source="6sf0kL8a7eAcz61URbQK-65" target="6sf0kL8a7eAcz61URbQK-66" edge="1">
          <mxGeometry width="50" height="50" relative="1" as="geometry">
            <mxPoint x="470" y="675" as="sourcePoint" />
            <mxPoint x="520" y="659" as="targetPoint" />
          </mxGeometry>
        </mxCell>
        <mxCell id="6sf0kL8a7eAcz61URbQK-80" value="" style="endArrow=none;html=1;rounded=0;" parent="1" source="6sf0kL8a7eAcz61URbQK-39" target="6sf0kL8a7eAcz61URbQK-66" edge="1">
          <mxGeometry width="50" height="50" relative="1" as="geometry">
            <mxPoint x="480" y="685" as="sourcePoint" />
            <mxPoint x="530" y="669" as="targetPoint" />
          </mxGeometry>
        </mxCell>
        <mxCell id="6sf0kL8a7eAcz61URbQK-81" value="1" style="text;html=1;align=center;verticalAlign=middle;whiteSpace=wrap;rounded=0;" parent="1" vertex="1">
          <mxGeometry x="490" y="535" width="60" height="30" as="geometry" />
        </mxCell>
        <mxCell id="6sf0kL8a7eAcz61URbQK-82" value="*" style="text;html=1;align=center;verticalAlign=middle;whiteSpace=wrap;rounded=0;" parent="1" vertex="1">
          <mxGeometry x="210" y="450" width="60" height="30" as="geometry" />
        </mxCell>
        <mxCell id="qvqH9bw0xaMzxDtVYnzz-1" value="Biografia" style="rounded=1;whiteSpace=wrap;html=1;arcSize=50;" parent="1" vertex="1">
          <mxGeometry x="270" y="-150" width="90" height="40" as="geometry" />
        </mxCell>
        <mxCell id="qvqH9bw0xaMzxDtVYnzz-2" value="" style="endArrow=none;html=1;rounded=0;" parent="1" source="6sf0kL8a7eAcz61URbQK-14" target="qvqH9bw0xaMzxDtVYnzz-1" edge="1">
          <mxGeometry width="50" height="50" relative="1" as="geometry">
            <mxPoint x="368" y="-100" as="sourcePoint" />
            <mxPoint x="560" y="-5" as="targetPoint" />
          </mxGeometry>
        </mxCell>
      </root>
    </mxGraphModel>
  </diagram>
</mxfile>
